<svg width="32" height="32" viewBox="0 0 32 32" fill="none" xmlns="http://www.w3.org/2000/svg">
  <!-- Background circle with gradient -->
  <defs>
    <linearGradient id="bg-gradient" x1="0%" y1="0%" x2="100%" y2="100%">
      <stop offset="0%" style="stop-color:#10b981;stop-opacity:1" />
      <stop offset="100%" style="stop-color:#059669;stop-opacity:1" />
    </linearGradient>
    <linearGradient id="globe-gradient" x1="0%" y1="0%" x2="100%" y2="100%">
      <stop offset="0%" style="stop-color:#34d399;stop-opacity:1" />
      <stop offset="100%" style="stop-color:#10b981;stop-opacity:1" />
    </linearGradient>
  </defs>
  
  <!-- Background -->
  <circle cx="16" cy="16" r="16" fill="url(#bg-gradient)"/>
  
  <!-- Globe -->
  <circle cx="16" cy="17" r="9" fill="url(#globe-gradient)" stroke="#ffffff" stroke-width="1"/>
  
  <!-- Globe lines (continents) -->
  <path d="M8 17 C12 14, 20 14, 24 17" stroke="#ffffff" stroke-width="1.5" fill="none" opacity="0.8"/>
  <path d="M8 20 C12 18, 20 18, 24 20" stroke="#ffffff" stroke-width="1.5" fill="none" opacity="0.8"/>
  <path d="M16 8 L16 26" stroke="#ffffff" stroke-width="1.5" opacity="0.6"/>
  <path d="M7 17 L25 17" stroke="#ffffff" stroke-width="1.5" opacity="0.6"/>
  
  <!-- Airplane -->
  <g transform="translate(20, 6) rotate(45)">
    <path d="M0 0 L4 1 L2 3 L1 2 Z" fill="#ffffff"/>
    <path d="M1 1 L3 1" stroke="#ffffff" stroke-width="0.5"/>
  </g>
  
  <!-- Small stars/sparkles for travel magic -->
  <circle cx="26" cy="10" r="1" fill="#ffffff" opacity="0.8"/>
  <circle cx="6" cy="8" r="0.8" fill="#ffffff" opacity="0.6"/>
  <circle cx="28" cy="24" r="0.8" fill="#ffffff" opacity="0.7"/>
</svg>
