<svg width="32" height="32" viewBox="0 0 32 32" fill="none" xmlns="http://www.w3.org/2000/svg">
  <!-- Background circle with gradient -->
  <defs>
    <linearGradient id="bg-gradient" x1="0%" y1="0%" x2="100%" y2="100%">
      <stop offset="0%" style="stop-color:#10b981;stop-opacity:1" />
      <stop offset="100%" style="stop-color:#059669;stop-opacity:1" />
    </linearGradient>
    <linearGradient id="plane-gradient" x1="0%" y1="0%" x2="100%" y2="100%">
      <stop offset="0%" style="stop-color:#ffffff;stop-opacity:1" />
      <stop offset="100%" style="stop-color:#f0f9ff;stop-opacity:1" />
    </linearGradient>
  </defs>
  
  <!-- Background -->
  <circle cx="16" cy="16" r="16" fill="url(#bg-gradient)"/>
  
  <!-- Main airplane -->
  <g transform="translate(16, 16)">
    <!-- Airplane body -->
    <path d="M-6 0 L8 0 L6 -2 L8 -2 L10 0 L8 2 L6 2 Z" fill="url(#plane-gradient)" stroke="#059669" stroke-width="0.5"/>
    <!-- Wings -->
    <path d="M-2 0 L2 -6 L4 -6 L0 0 L4 6 L2 6 Z" fill="url(#plane-gradient)"/>
    <!-- Tail -->
    <path d="M-6 0 L-8 -3 L-6 -3 L-6 0 L-6 3 L-8 3 Z" fill="url(#plane-gradient)"/>
    <!-- Window -->
    <circle cx="2" cy="0" r="1.5" fill="#10b981" opacity="0.8"/>
  </g>
  
  <!-- Travel path/route -->
  <path d="M4 12 Q16 4, 28 12" stroke="#ffffff" stroke-width="1.5" fill="none" opacity="0.6" stroke-dasharray="2,2"/>
  <path d="M4 20 Q16 28, 28 20" stroke="#ffffff" stroke-width="1.5" fill="none" opacity="0.6" stroke-dasharray="2,2"/>
  
  <!-- Small destination dots -->
  <circle cx="4" cy="12" r="1.5" fill="#ffffff" opacity="0.9"/>
  <circle cx="28" cy="12" r="1.5" fill="#ffffff" opacity="0.9"/>
  <circle cx="4" cy="20" r="1.5" fill="#ffffff" opacity="0.9"/>
  <circle cx="28" cy="20" r="1.5" fill="#ffffff" opacity="0.9"/>
</svg>
