<svg width="192" height="192" viewBox="0 0 192 192" fill="none" xmlns="http://www.w3.org/2000/svg">
  <!-- Background circle with gradient -->
  <defs>
    <linearGradient id="bg-gradient" x1="0%" y1="0%" x2="100%" y2="100%">
      <stop offset="0%" style="stop-color:#10b981;stop-opacity:1" />
      <stop offset="100%" style="stop-color:#059669;stop-opacity:1" />
    </linearGradient>
    <linearGradient id="plane-gradient" x1="0%" y1="0%" x2="100%" y2="100%">
      <stop offset="0%" style="stop-color:#ffffff;stop-opacity:1" />
      <stop offset="100%" style="stop-color:#f0f9ff;stop-opacity:1" />
    </linearGradient>
  </defs>
  
  <!-- Background with rounded corners for iOS -->
  <rect x="0" y="0" width="192" height="192" rx="40" ry="40" fill="url(#bg-gradient)"/>
  
  <!-- Main airplane -->
  <g transform="translate(96, 96)">
    <!-- Airplane body -->
    <path d="M-36 0 L48 0 L36 -12 L48 -12 L60 0 L48 12 L36 12 Z" fill="url(#plane-gradient)" stroke="#059669" stroke-width="3"/>
    <!-- Wings -->
    <path d="M-12 0 L12 -36 L24 -36 L0 0 L24 36 L12 36 Z" fill="url(#plane-gradient)"/>
    <!-- Tail -->
    <path d="M-36 0 L-48 -18 L-36 -18 L-36 0 L-36 18 L-48 18 Z" fill="url(#plane-gradient)"/>
    <!-- Windows -->
    <circle cx="12" cy="0" r="9" fill="#10b981" opacity="0.8"/>
    <circle cx="30" cy="0" r="6" fill="#10b981" opacity="0.6"/>
  </g>
  
  <!-- Travel paths/routes -->
  <path d="M24 72 Q96 24, 168 72" stroke="#ffffff" stroke-width="8" fill="none" opacity="0.6" stroke-dasharray="12,12"/>
  <path d="M24 120 Q96 168, 168 120" stroke="#ffffff" stroke-width="8" fill="none" opacity="0.6" stroke-dasharray="12,12"/>
  
  <!-- Destination dots -->
  <circle cx="24" cy="72" r="8" fill="#ffffff" opacity="0.9"/>
  <circle cx="168" cy="72" r="8" fill="#ffffff" opacity="0.9"/>
  <circle cx="24" cy="120" r="8" fill="#ffffff" opacity="0.9"/>
  <circle cx="168" cy="120" r="8" fill="#ffffff" opacity="0.9"/>
  
  <!-- Additional travel elements -->
  <circle cx="156" cy="36" r="6" fill="#ffffff" opacity="0.8"/>
  <circle cx="36" cy="156" r="6" fill="#ffffff" opacity="0.8"/>
  <circle cx="156" cy="156" r="4" fill="#ffffff" opacity="0.6"/>
  <circle cx="36" cy="36" r="4" fill="#ffffff" opacity="0.6"/>
</svg>
