<svg width="512" height="512" viewBox="0 0 512 512" fill="none" xmlns="http://www.w3.org/2000/svg">
  <!-- Background circle with gradient -->
  <defs>
    <linearGradient id="bg-gradient" x1="0%" y1="0%" x2="100%" y2="100%">
      <stop offset="0%" style="stop-color:#10b981;stop-opacity:1" />
      <stop offset="100%" style="stop-color:#059669;stop-opacity:1" />
    </linearGradient>
    <linearGradient id="globe-gradient" x1="0%" y1="0%" x2="100%" y2="100%">
      <stop offset="0%" style="stop-color:#34d399;stop-opacity:1" />
      <stop offset="100%" style="stop-color:#10b981;stop-opacity:1" />
    </linearGradient>
  </defs>
  
  <!-- Background with rounded corners -->
  <rect x="0" y="0" width="512" height="512" rx="100" ry="100" fill="url(#bg-gradient)"/>
  
  <!-- Globe -->
  <circle cx="256" cy="280" r="140" fill="url(#globe-gradient)" stroke="#ffffff" stroke-width="12"/>
  
  <!-- Globe lines (continents) -->
  <path d="M128 280 C180 240, 332 240, 384 280" stroke="#ffffff" stroke-width="16" fill="none" opacity="0.8"/>
  <path d="M128 320 C180 290, 332 290, 384 320" stroke="#ffffff" stroke-width="16" fill="none" opacity="0.8"/>
  <path d="M128 360 C180 340, 332 340, 384 360" stroke="#ffffff" stroke-width="12" fill="none" opacity="0.6"/>
  <path d="M256 140 L256 420" stroke="#ffffff" stroke-width="12" opacity="0.6"/>
  <path d="M116 280 L396 280" stroke="#ffffff" stroke-width="12" opacity="0.6"/>
  
  <!-- Airplane -->
  <g transform="translate(350, 120) rotate(45) scale(4)">
    <path d="M0 0 L16 4 L8 12 L4 8 Z" fill="#ffffff"/>
    <path d="M4 4 L12 4" stroke="#ffffff" stroke-width="3"/>
    <circle cx="8" cy="8" r="2" fill="#10b981"/>
    <!-- Wing details -->
    <path d="M2 6 L6 2" stroke="#ffffff" stroke-width="2"/>
    <path d="M10 10 L14 6" stroke="#ffffff" stroke-width="2"/>
  </g>
  
  <!-- Travel elements and sparkles -->
  <circle cx="420" cy="160" r="12" fill="#ffffff" opacity="0.8"/>
  <circle cx="92" cy="120" r="8" fill="#ffffff" opacity="0.6"/>
  <circle cx="450" cy="380" r="10" fill="#ffffff" opacity="0.7"/>
  <circle cx="62" cy="400" r="6" fill="#ffffff" opacity="0.5"/>
  
  <!-- Compass-like decoration -->
  <g transform="translate(100, 80)" opacity="0.7">
    <path d="M0 16 L16 0 L32 16 L16 32 Z" fill="none" stroke="#ffffff" stroke-width="6"/>
    <circle cx="16" cy="16" r="4" fill="#ffffff"/>
    <path d="M16 4 L16 12" stroke="#ffffff" stroke-width="3"/>
    <path d="M16 20 L16 28" stroke="#ffffff" stroke-width="3"/>
    <path d="M4 16 L12 16" stroke="#ffffff" stroke-width="3"/>
    <path d="M20 16 L28 16" stroke="#ffffff" stroke-width="3"/>
  </g>
  
  <!-- Additional travel symbols -->
  <g transform="translate(400, 450)" opacity="0.6">
    <!-- Luggage icon -->
    <rect x="0" y="8" width="24" height="16" fill="none" stroke="#ffffff" stroke-width="4" rx="2"/>
    <path d="M6 8 L6 4 C6 2, 8 0, 10 0 L14 0 C16 0, 18 2, 18 4 L18 8" stroke="#ffffff" stroke-width="3" fill="none"/>
    <circle cx="4" cy="26" r="2" fill="#ffffff"/>
    <circle cx="20" cy="26" r="2" fill="#ffffff"/>
  </g>
</svg>
