<svg width="512" height="512" viewBox="0 0 512 512" fill="none" xmlns="http://www.w3.org/2000/svg">
  <!-- Background circle with gradient -->
  <defs>
    <linearGradient id="bg-gradient" x1="0%" y1="0%" x2="100%" y2="100%">
      <stop offset="0%" style="stop-color:#10b981;stop-opacity:1" />
      <stop offset="100%" style="stop-color:#059669;stop-opacity:1" />
    </linearGradient>
    <linearGradient id="plane-gradient" x1="0%" y1="0%" x2="100%" y2="100%">
      <stop offset="0%" style="stop-color:#ffffff;stop-opacity:1" />
      <stop offset="100%" style="stop-color:#f0f9ff;stop-opacity:1" />
    </linearGradient>
  </defs>
  
  <!-- Background with rounded corners -->
  <rect x="0" y="0" width="512" height="512" rx="100" ry="100" fill="url(#bg-gradient)"/>
  
  <!-- Main airplane -->
  <g transform="translate(256, 256)">
    <!-- Airplane body -->
    <path d="M-96 0 L128 0 L96 -32 L128 -32 L160 0 L128 32 L96 32 Z" fill="url(#plane-gradient)" stroke="#059669" stroke-width="8"/>
    <!-- Wings -->
    <path d="M-32 0 L32 -96 L64 -96 L0 0 L64 96 L32 96 Z" fill="url(#plane-gradient)"/>
    <!-- Tail -->
    <path d="M-96 0 L-128 -48 L-96 -48 L-96 0 L-96 48 L-128 48 Z" fill="url(#plane-gradient)"/>
    <!-- Windows -->
    <circle cx="32" cy="0" r="24" fill="#10b981" opacity="0.8"/>
    <circle cx="80" cy="0" r="16" fill="#10b981" opacity="0.6"/>
    <circle cx="0" cy="0" r="12" fill="#10b981" opacity="0.4"/>
  </g>
  
  <!-- Travel paths/routes -->
  <path d="M64 192 Q256 64, 448 192" stroke="#ffffff" stroke-width="20" fill="none" opacity="0.6" stroke-dasharray="32,32"/>
  <path d="M64 320 Q256 448, 448 320" stroke="#ffffff" stroke-width="20" fill="none" opacity="0.6" stroke-dasharray="32,32"/>
  
  <!-- Destination dots -->
  <circle cx="64" cy="192" r="20" fill="#ffffff" opacity="0.9"/>
  <circle cx="448" cy="192" r="20" fill="#ffffff" opacity="0.9"/>
  <circle cx="64" cy="320" r="20" fill="#ffffff" opacity="0.9"/>
  <circle cx="448" cy="320" r="20" fill="#ffffff" opacity="0.9"/>
  
  <!-- Additional travel elements -->
  <circle cx="416" cy="96" r="16" fill="#ffffff" opacity="0.8"/>
  <circle cx="96" cy="416" r="16" fill="#ffffff" opacity="0.8"/>
  <circle cx="416" cy="416" r="12" fill="#ffffff" opacity="0.6"/>
  <circle cx="96" cy="96" r="12" fill="#ffffff" opacity="0.6"/>
  
  <!-- Small travel sparkles -->
  <circle cx="384" cy="128" r="8" fill="#ffffff" opacity="0.7"/>
  <circle cx="128" cy="384" r="8" fill="#ffffff" opacity="0.7"/>
  <circle cx="384" cy="384" r="6" fill="#ffffff" opacity="0.5"/>
  <circle cx="128" cy="128" r="6" fill="#ffffff" opacity="0.5"/>
</svg>
